<?xml version="1.0" encoding="iso-8859-1"?>
<!-- Generator: Adobe Illustrator 19.0.0, SVG Export Plug-In . SVG Version: 6.00 Build 0)  -->
<svg version="1.1" id="Layer_1" xmlns="http://www.w3.org/2000/svg" xmlns:xlink="http://www.w3.org/1999/xlink" x="0px" y="0px"
	 viewBox="0 0 512 512" style="enable-background:new 0 0 512 512;" xml:space="preserve">
<path style="fill:#9CC4FF;" d="M503.916,158.989c0,83.343-67.562,150.905-150.905,150.905c-11.572,0-22.84-1.307-33.665-3.774
	c-8.581,57.047-57.802,100.784-117.24,100.784c-65.483,0-118.568-53.085-118.568-118.568c0-5.178,0.334-10.279,0.978-15.281
	c-45.37-23.194-76.43-70.392-76.43-124.845c0-77.39,62.737-140.126,140.126-140.126c39.258,0,74.739,16.151,100.178,42.163
	C275.517,24.141,312.388,8.084,353.01,8.084C436.353,8.084,503.916,75.647,503.916,158.989z M148.211,471.579
	c0-17.86-14.477-32.337-32.337-32.337s-32.337,14.477-32.337,32.337c0,17.86,14.477,32.337,32.337,32.337
	S148.211,489.439,148.211,471.579z"/>
<path style="fill:#87A1FF;" d="M503.916,158.989c0,83.343-67.562,150.905-150.905,150.905c-11.572,0-22.84-1.307-33.665-3.774
	c-8.581,57.047-57.802,100.784-117.24,100.784c-65.483,0-118.568-53.085-118.568-118.568c0-5.078,0.326-10.078,0.945-14.988
	c10,2.739,20.523,4.209,31.392,4.209c59.438,0,108.659-43.738,117.24-100.784c10.825,2.466,22.093,3.774,33.665,3.774
	c83.343,0,150.905-67.562,150.905-150.905c0-2.383-0.063-4.751-0.171-7.108C468.586,46.72,503.916,98.725,503.916,158.989z
	 M125.263,440.632c0.901,2.972,1.389,6.124,1.389,9.39c0,17.86-14.477,32.337-32.337,32.337c-3.266,0-6.418-0.489-9.39-1.389
	c4.024,13.279,16.355,22.947,30.947,22.947c17.86,0,32.337-14.477,32.337-32.337C148.211,456.986,138.542,444.655,125.263,440.632z"
	/>
<path style="fill:#B6006F;" d="M185.478,184.939L185.478,184.939c-11.661,11.661-30.567,11.661-42.229,0l-52.786-52.786
	c-11.661-11.661-11.661-30.567,0-42.229l0,0c11.661-11.661,30.567-11.661,42.229,0l52.786,52.786
	C197.138,154.371,197.138,173.278,185.478,184.939z"/>
<path style="fill:#697900;" d="M185.478,89.924L185.478,89.924c11.661,11.661,11.661,30.567,0,42.229l-52.786,52.786
	c-11.661,11.661-30.567,11.661-42.229,0l0,0c-11.661-11.661-11.661-30.567,0-42.229l52.786-52.786
	C154.91,78.264,173.817,78.264,185.478,89.924z"/>
<path style="fill:#859300;" d="M137.971,95.203l42.229,42.229l-42.229,42.229l-42.229-42.229L137.971,95.203z"/>
<path style="fill:#FF5200;" d="M435.004,120.885v72.971c0,6.421-4.109,12.121-10.2,14.152l-79.302,26.434L266.2,208.008
	c-6.091-2.031-10.2-7.731-10.2-14.152v-72.971c0-10.182,9.975-17.371,19.634-14.152l69.868,23.289l69.868-23.289
	C425.029,103.515,435.004,110.704,435.004,120.885z"/>
<path style="fill:#FFC02C;" d="M435.004,120.886v72.971c0,6.421-4.109,12.121-10.2,14.152l-79.302,26.433V130.023l69.868-23.289
	C425.029,103.515,435.004,110.704,435.004,120.886z"/>
<path style="fill:#FFFFFF;" d="M154.139,137.432c0,8.929-7.239,16.168-16.168,16.168s-16.168-7.239-16.168-16.168
	s7.239-16.168,16.168-16.168S154.139,128.502,154.139,137.432z"/>
<path d="M311.13,56.895c2.589-3.638,7.637-4.485,11.275-1.896l0.877,0.625c3.637,2.59,4.485,7.639,1.895,11.275
	c-1.577,2.215-4.065,3.395-6.591,3.395c-1.622,0-3.261-0.487-4.683-1.5l-0.877-0.625C309.388,65.579,308.54,60.53,311.13,56.895z
	 M335.409,84.12l0.877,0.625c1.423,1.012,3.06,1.5,4.683,1.5c2.527,0,5.014-1.181,6.591-3.395c2.59-3.636,1.742-8.685-1.895-11.275
	l-0.877-0.625c-3.638-2.588-8.685-1.741-11.275,1.896C330.924,76.481,331.773,81.53,335.409,84.12z M156.295,471.579
	c0,22.289-18.132,40.421-40.421,40.421s-40.421-18.132-40.421-40.421c0-22.289,18.132-40.421,40.421-40.421
	S156.295,449.29,156.295,471.579z M140.126,471.579c0-13.372-10.879-24.253-24.253-24.253s-24.253,10.88-24.253,24.253
	s10.879,24.253,24.253,24.253S140.126,484.951,140.126,471.579z M63.057,204.8h-1.078c-4.465,0-8.084,3.618-8.084,8.084
	s3.62,8.084,8.084,8.084h1.078c4.465,0,8.084-3.618,8.084-8.084S67.521,204.8,63.057,204.8z M354.175,57.785l0.877,0.625
	c1.423,1.012,3.06,1.5,4.683,1.5c2.527,0,5.014-1.181,6.591-3.395c2.59-3.636,1.742-8.685-1.895-11.275l-0.877-0.625
	c-3.638-2.588-8.686-1.741-11.275,1.896C349.69,50.146,350.539,55.195,354.175,57.785z M246.299,280.253h-1.078
	c-4.465,0-8.084,3.618-8.084,8.084s3.62,8.084,8.084,8.084h1.078c4.465,0,8.084-3.618,8.084-8.084S250.764,280.253,246.299,280.253z
	 M256,237.137h-31.396c-10.494,0-19.776,6.689-23.095,16.645l-24.925,74.775c-1.115,3.345-4.232,5.591-7.755,5.591
	c-3.052,0-5.827-1.679-7.242-4.382l-27.772-53.019c-2.072-3.955-6.958-5.481-10.913-3.409s-5.482,6.957-3.41,10.913l27.772,53.019
	c4.217,8.048,12.48,13.047,21.564,13.047c10.494,0,19.776-6.689,23.095-16.645l24.925-74.775c1.115-3.345,4.232-5.591,7.755-5.591
	H256c4.465,0,8.084-3.618,8.084-8.084C264.084,240.755,260.465,237.137,256,237.137z M443.088,120.885v72.971
	c0,9.916-6.321,18.685-15.728,21.821l-79.303,26.433c-0.014,0.004-0.028,0.005-0.041,0.01c-0.362,0.119-0.734,0.206-1.111,0.273
	c-0.041,0.008-0.081,0.023-0.123,0.029c-0.42,0.068-0.848,0.105-1.281,0.105c-0.267,0-0.537-0.038-0.805-0.065
	c-0.151-0.015-0.303-0.013-0.452-0.037c-0.135-0.022-0.268-0.067-0.402-0.095c-0.287-0.06-0.573-0.119-0.853-0.209
	c-0.015-0.004-0.03-0.006-0.044-0.011l-79.302-26.433c-9.408-3.135-15.729-11.904-15.729-21.82v-72.971
	c0-7.483,3.482-14.284,9.552-18.661c6.071-4.375,13.624-5.526,20.723-3.161l67.311,22.437l67.311-22.437
	c7.098-2.365,14.652-1.215,20.723,3.161C439.606,106.601,443.088,113.402,443.088,120.885z M337.418,135.85l-64.34-21.447
	c-2.108-0.703-4.353-0.362-6.156,0.939c-1.803,1.3-2.837,3.32-2.837,5.544v72.971c0,2.945,1.878,5.55,4.672,6.482l68.662,22.887
	V135.85H337.418z M426.92,120.885c0-2.224-1.034-4.244-2.838-5.544c-1.803-1.301-4.049-1.642-6.155-0.939l0,0l-64.34,21.446v87.377
	l68.662-22.887c2.794-0.931,4.672-3.537,4.672-6.482v-72.971H426.92z M512,158.989c0,87.667-71.322,158.989-158.989,158.989
	c-9.155,0-18.257-0.804-27.208-2.355c-12.676,57.834-64.01,99.366-123.697,99.366c-69.837,0-126.653-56.816-126.653-126.653
	c0-4.023,0.029-6.244,0.404-10.215c0.061-0.655-5.337-3.663-6.678-4.508C25.862,246.26,0,199.38,0,148.211
	C0,66.488,66.487,0,148.211,0c37.933,0,73.489,14.31,100.386,39.098C277.551,13.824,314.274,0,353.01,0
	C440.678,0,512,71.322,512,158.989z M495.832,158.989c0-78.752-64.069-142.821-142.821-142.821
	c-34.498,0-67.22,12.206-93.125,34.539c7.627,8.755,14.308,18.487,19.835,29.092c2.064,3.96,0.527,8.842-3.433,10.905
	c-3.96,2.063-8.842,0.526-10.905-3.432c-5.135-9.852-11.656-18.626-18.555-26.906c-4.1-4.923-8.474-8.695-9.035-9.214
	c-23.982-22.173-55.715-34.984-89.583-34.984c-72.809,0-132.042,59.234-132.042,132.042c0,45.588,23.044,87.358,61.644,111.731
	c0.258,0.162,0.499,0.338,0.732,0.524c3.28-14.602,9.133-28.545,17.396-41.219c2.439-3.74,7.449-4.792,11.187-2.356
	c3.74,2.438,4.796,7.447,2.357,11.187c-11.688,17.924-17.864,38.761-17.864,60.259c0,60.922,49.563,110.484,110.484,110.484
	c52.104,0,96.895-36.275,107.913-86.768c-12.735-3.568-25.017-8.7-36.509-15.348c-0.152-0.088-8.886-3.902-8.886-8.368
	s3.62-8.084,8.084-8.084h1.078c1.696,0,6.789,1.86,7.82,2.455c21.602,12.497,46.295,19.102,71.405,19.102
	C431.763,301.811,495.832,237.742,495.832,158.989z M158.989,247.916c-4.465,0-8.084,3.618-8.084,8.084s3.62,8.084,8.084,8.084
	h1.078c4.465,0,8.084-3.618,8.084-8.084s-3.62-8.084-8.084-8.084H158.989z M246.299,312.589h-1.078
	c-4.465,0-8.084,3.618-8.084,8.084s3.62,8.084,8.084,8.084h1.078c4.465,0,8.084-3.618,8.084-8.084S250.764,312.589,246.299,312.589z
	 M137.971,191.072c-7.342,7.113-16.864,10.68-26.392,10.68c-9.717,0-19.433-3.699-26.831-11.096
	c-14.652-14.652-14.784-38.397-0.416-53.224c-14.368-14.828-14.236-38.572,0.416-53.224c14.652-14.651,38.396-14.783,53.223-0.416
	c14.828-14.367,38.571-14.235,53.223,0.416c14.652,14.652,14.784,38.397,0.416,53.224c14.368,14.828,14.236,38.572-0.416,53.224
	c-7.398,7.396-17.114,11.096-26.831,11.096C154.834,201.752,145.312,198.185,137.971,191.072z M180.177,148.886l-30.75,30.751
	c8.522,8.052,21.992,7.928,30.335-0.416C188.103,170.88,188.228,157.408,180.177,148.886z M149.425,95.224l30.75,30.751
	c8.053-8.521,7.928-21.993-0.415-30.335C171.419,87.299,157.947,87.174,149.425,95.224z M137.971,106.636l-30.795,30.795
	l30.795,30.795l30.795-30.795L137.971,106.636z M95.764,125.977l30.75-30.751c-4.185-3.954-9.556-5.952-14.937-5.952
	c-5.577,0-11.152,2.122-15.398,6.368C87.838,103.983,87.713,117.455,95.764,125.977z M126.516,179.639l-30.75-30.751
	c-8.053,8.521-7.928,21.993,0.415,30.335C104.522,187.564,117.994,187.689,126.516,179.639z M137.432,145.516h1.078
	c4.465,0,8.084-3.618,8.084-8.084c0-4.466-3.62-8.084-8.084-8.084h-1.078c-4.465,0-8.084,3.618-8.084,8.084
	C129.347,141.897,132.967,145.516,137.432,145.516z"/>
<g>
</g>
<g>
</g>
<g>
</g>
<g>
</g>
<g>
</g>
<g>
</g>
<g>
</g>
<g>
</g>
<g>
</g>
<g>
</g>
<g>
</g>
<g>
</g>
<g>
</g>
<g>
</g>
<g>
</g>
</svg>
